<svg width="1440" height="910" viewBox="0 0 1440 910" fill="none" xmlns="http://www.w3.org/2000/svg">
<path fill-rule="evenodd" clip-rule="evenodd" d="M47.958 0.176785H0.167881V50.5015H43.007L47.958 45.2879V0.176785ZM53.0411 50.5015L48.1539 45.3551V0.176785H95.9441V50.5015H53.0411ZM48.1539 55.7776L52.9683 50.7078H95.9441V101.033H48.1539V55.7776ZM43.0798 50.7078L47.958 55.8448V101.033H0.167881V50.7078H43.0798ZM0 0V303.333H480L480 252.802V202.271V202.124V151.593V101.209V50.6783V0H0ZM96.1398 0.176785H143.93V50.5015H96.1398V0.176785ZM191.916 0.176785H144.126V50.5015H191.916V0.176785ZM192.112 0.176785H239.902V50.5015H192.112V0.176785ZM287.888 0.176785H240.098V50.5015H287.888V0.176785ZM288.084 0.176785H335.874V50.5015H288.084V0.176785ZM383.86 0.176785H336.07V50.5015H383.86V0.176785ZM384.056 0.176785H431.846V50.5015H384.056V0.176785ZM479.832 0.176785H432.042V50.5015H479.832V0.176785ZM96.1398 50.7078H143.93V101.033H96.1398V50.7078ZM191.916 50.7078H144.126V101.033H187.109L191.916 95.9706V50.7078ZM196.842 101.033L192.112 96.0516V50.7078H239.902V101.033H196.842ZM192.112 106.46L197.054 101.256L197.038 101.239H239.902V151.563H192.112V106.46ZM186.913 101.239L186.897 101.256L191.916 106.541V151.563H144.126V101.239H186.913ZM287.888 50.7078H240.098V101.033H287.888V50.7078ZM288.084 50.7078H335.874V101.033H288.084V50.7078ZM383.86 50.7078H336.07V101.033H383.86V50.7078ZM384.056 50.7078H431.846V87.0709L418.587 101.033H384.056V50.7078ZM418.392 101.239H384.056V146.606L384.216 146.437L389.085 151.563H431.846V115.441L418.375 101.256L418.392 101.239ZM431.846 115.168L418.635 101.256L418.651 101.239H426.832L426.816 101.256L431.846 106.553V115.168ZM432.042 115.337V151.563H479.832V101.239H445.397L445.414 101.256L432.042 115.337ZM445.138 101.239L445.154 101.256L432.042 115.064V106.449L436.973 101.256L436.957 101.239H445.138ZM445.202 101.033H479.832V50.7078H432.042V87.175L445.202 101.033ZM432.042 87.4481L444.942 101.033H436.761L432.042 96.0632V87.4481ZM431.846 87.3439L418.847 101.033H427.028L431.846 95.9592V87.3439ZM384.056 156.963L384.216 157.133L389.295 151.785L389.281 151.77H431.846V202.094H384.056V156.963ZM379.152 151.77L379.138 151.785L383.86 156.757V202.094H336.07V151.77H379.152ZM383.86 146.812L379.348 151.563H336.07V101.239H383.86V146.812ZM0.167881 101.239H47.958V151.563H0.167881V101.239ZM95.9441 101.239H48.1539V151.563H95.9441V101.239ZM96.1398 101.239H143.93V151.563H96.1398V101.239ZM287.888 101.239H240.098V151.563H287.888V101.239ZM288.084 101.239H335.874V151.563H288.084V101.239ZM0.167881 151.77H47.958V202.094H0.167881V151.77ZM95.9441 151.77H48.1539V202.094H82.7394L82.6772 202.029L95.9441 188.059V151.77ZM95.9441 188.332L82.9366 202.029L82.9987 202.094H91.18L91.1179 202.029L95.9441 196.947V188.332ZM96.1398 196.741V188.126L96.1965 188.066L109.456 202.029L109.394 202.094H101.213L101.275 202.029L96.1965 196.681L96.1398 196.741ZM96.1398 207.317L96.1965 207.377L101.017 202.301H109.198L96.1965 215.992L96.1398 215.933V207.317ZM91.3759 202.301L95.9441 207.111V215.726L83.1946 202.301H91.3759ZM82.9353 202.301H48.1539V252.625H95.9441V215.999L82.9353 202.301ZM96.1398 216.206V252.625H143.93V202.301H109.458L96.1965 216.265L96.1398 216.206ZM109.654 202.094H143.93V151.77H96.1398V187.852L96.1965 187.793L109.716 202.029L109.654 202.094ZM191.916 151.77H144.126V202.094H191.916V151.77ZM192.112 151.77H239.902V202.094H192.112V151.77ZM287.888 151.77H240.098V202.094H287.888V151.77ZM288.084 151.77H335.874V202.094H288.084V151.77ZM479.832 151.77H432.042V202.094H479.832V151.77ZM0.167881 202.301H47.958V252.625H0.167881V202.301ZM191.916 202.301H144.126V252.625H191.916V202.301ZM192.112 202.301H239.902V252.625H192.112V202.301ZM287.888 202.301H240.098V252.625H287.888V202.301ZM288.084 202.301H335.874V252.625H288.084V202.301ZM383.86 202.301H336.07V252.625H383.86V202.301ZM384.056 202.301H431.846V252.625H384.056V202.301ZM479.832 202.301H432.042V252.625H479.832V202.301ZM0.167881 252.832H47.958V303.157H0.167881V252.832ZM95.9441 252.832H48.1539V303.157H95.9441V252.832ZM96.1398 252.832H143.93V303.157H96.1398V252.832ZM191.916 252.832H144.126V303.157H191.916V252.832ZM192.112 252.832H239.902V303.157H192.112V252.832ZM287.888 252.832H240.098V303.157H287.888V252.832ZM288.084 252.832H335.874V303.157H288.084V252.832ZM383.86 252.832H336.07V303.157H383.86V252.832ZM384.056 252.832H431.846V303.157H384.056V252.832ZM479.832 252.832H432.042V303.157H479.832V252.832Z" fill="url(#paint0_radial_2514_5560)"/>
<path fill-rule="evenodd" clip-rule="evenodd" d="M527.958 0.176785H480.168V50.5015H523.007L527.958 45.2879V0.176785ZM533.041 50.5015L528.154 45.3551V0.176785H575.944V50.5015H533.041ZM528.154 55.7776L532.968 50.7078H575.944V101.033H528.154V55.7776ZM523.08 50.7078L527.958 55.8448V101.033H480.168V50.7078H523.08ZM480 0V50.6783V101.209V151.593V202.124V202.271V252.802L480 303.333H960L960 252.802V202.271V202.124V151.593V101.209V50.6783V0H480ZM576.14 0.176785H623.93V50.5015H576.14V0.176785ZM671.916 0.176785H624.126V50.5015H671.916V0.176785ZM672.112 0.176785H719.902V50.5015H672.112V0.176785ZM767.888 0.176785H720.098V50.5015H767.888V0.176785ZM768.084 0.176785H815.874V50.5015H768.084V0.176785ZM863.86 0.176785H816.07V50.5015H863.86V0.176785ZM864.056 0.176785H911.846V50.5015H864.056V0.176785ZM959.832 0.176785H912.042V50.5015H959.832V0.176785ZM576.14 50.7078H623.93V101.033H576.14V50.7078ZM671.916 50.7078H624.126V101.033H667.109L671.916 95.9706V50.7078ZM676.842 101.033L672.112 96.0516V50.7078H719.902V101.033H676.842ZM672.112 106.46L677.054 101.256L677.038 101.239H719.902V151.563H672.112V106.46ZM666.913 101.239L666.897 101.256L671.916 106.541V151.563H624.126V101.239H666.913ZM767.888 50.7078H720.098V101.033H767.888V50.7078ZM768.084 50.7078H815.874V101.033H768.084V50.7078ZM863.86 50.7078H816.07V101.033H863.86V50.7078ZM864.056 50.7078H911.846V87.0709L898.587 101.033H864.056V50.7078ZM898.392 101.239H864.056V146.606L864.216 146.437L869.085 151.563H911.846V115.441L898.375 101.256L898.392 101.239ZM911.846 115.168L898.635 101.256L898.651 101.239H906.832L906.816 101.256L911.846 106.553V115.168ZM912.042 115.337V151.563H959.832V101.239H925.397L925.414 101.256L912.042 115.337ZM925.138 101.239L925.154 101.256L912.042 115.064V106.449L916.973 101.256L916.957 101.239H925.138ZM925.202 101.033H959.832V50.7078H912.042V87.175L925.202 101.033ZM912.042 87.4481L924.942 101.033H916.761L912.042 96.0632V87.4481ZM911.846 87.3439L898.847 101.033H907.028L911.846 95.9592V87.3439ZM864.056 156.963L864.216 157.133L869.295 151.785L869.281 151.77H911.846V202.094H864.056V156.963ZM859.152 151.77L859.138 151.785L863.86 156.757V202.094H816.07V151.77H859.152ZM863.86 146.812L859.348 151.563H816.07V101.239H863.86V146.812ZM480.168 101.239H527.958V151.563H480.168V101.239ZM575.944 101.239H528.154V151.563H575.944V101.239ZM576.14 101.239H623.93V151.563H576.14V101.239ZM767.888 101.239H720.098V151.563H767.888V101.239ZM768.084 101.239H815.874V151.563H768.084V101.239ZM480.168 151.77H527.958V202.094H480.168V151.77ZM575.944 151.77H528.154V202.094H562.739L562.677 202.029L575.944 188.059V151.77ZM575.944 188.332L562.937 202.029L562.999 202.094H571.18L571.118 202.029L575.944 196.947V188.332ZM576.14 196.741V188.126L576.196 188.066L589.456 202.029L589.394 202.094H581.213L581.275 202.029L576.196 196.681L576.14 196.741ZM576.14 207.317L576.196 207.377L581.017 202.301H589.198L576.196 215.992L576.14 215.933V207.317ZM571.376 202.301L575.944 207.111V215.726L563.195 202.301H571.376ZM562.935 202.301H528.154V252.625H575.944V215.999L562.935 202.301ZM576.14 216.206V252.625H623.93V202.301H589.458L576.196 216.265L576.14 216.206ZM589.654 202.094H623.93V151.77H576.14V187.852L576.196 187.793L589.716 202.029L589.654 202.094ZM671.916 151.77H624.126V202.094H671.916V151.77ZM672.112 151.77H719.902V202.094H672.112V151.77ZM767.888 151.77H720.098V202.094H767.888V151.77ZM768.084 151.77H815.874V202.094H768.084V151.77ZM959.832 151.77H912.042V202.094H959.832V151.77ZM480.168 202.301H527.958V252.625H480.168V202.301ZM671.916 202.301H624.126V252.625H671.916V202.301ZM672.112 202.301H719.902V252.625H672.112V202.301ZM767.888 202.301H720.098V252.625H767.888V202.301ZM768.084 202.301H815.874V252.625H768.084V202.301ZM863.86 202.301H816.07V252.625H863.86V202.301ZM864.056 202.301H911.846V252.625H864.056V202.301ZM959.832 202.301H912.042V252.625H959.832V202.301ZM480.168 252.832H527.958V303.157H480.168V252.832ZM575.944 252.832H528.154V303.157H575.944V252.832ZM576.14 252.832H623.93V303.157H576.14V252.832ZM671.916 252.832H624.126V303.157H671.916V252.832ZM672.112 252.832H719.902V303.157H672.112V252.832ZM767.888 252.832H720.098V303.157H767.888V252.832ZM768.084 252.832H815.874V303.157H768.084V252.832ZM863.86 252.832H816.07V303.157H863.86V252.832ZM864.056 252.832H911.846V303.157H864.056V252.832ZM959.832 252.832H912.042V303.157H959.832V252.832Z" fill="url(#paint1_radial_2514_5560)"/>
<path fill-rule="evenodd" clip-rule="evenodd" d="M1007.96 0.176785H960.168V50.5015H1003.01L1007.96 45.2879V0.176785ZM1013.04 50.5015L1008.15 45.3551V0.176785H1055.94V50.5015H1013.04ZM1008.15 55.7776L1012.97 50.7078H1055.94V101.033H1008.15V55.7776ZM1003.08 50.7078L1007.96 55.8448V101.033H960.168V50.7078H1003.08ZM960 0V50.6783V101.209V151.593V202.124V202.271V252.802L960 303.333H1440L1440 0H960ZM1056.14 0.176785H1103.93V50.5015H1056.14V0.176785ZM1151.92 0.176785H1104.13V50.5015H1151.92V0.176785ZM1152.11 0.176785H1199.9V50.5015H1152.11V0.176785ZM1247.89 0.176785H1200.1V50.5015H1247.89V0.176785ZM1248.08 0.176785H1295.87V50.5015H1248.08V0.176785ZM1343.86 0.176785H1296.07V50.5015H1343.86V0.176785ZM1344.06 0.176785H1391.85V50.5015H1344.06V0.176785ZM1439.83 0.176785H1392.04V50.5015H1439.83V0.176785ZM1056.14 50.7078H1103.93V101.033H1056.14V50.7078ZM1151.92 50.7078H1104.13V101.033H1147.11L1151.92 95.9706V50.7078ZM1156.84 101.033L1152.11 96.0516V50.7078H1199.9V101.033H1156.84ZM1152.11 106.46L1157.05 101.256L1157.04 101.239H1199.9V151.563H1152.11V106.46ZM1146.91 101.239L1146.9 101.256L1151.92 106.541V151.563H1104.13V101.239H1146.91ZM1247.89 50.7078H1200.1V101.033H1247.89V50.7078ZM1248.08 50.7078H1295.87V101.033H1248.08V50.7078ZM1343.86 50.7078H1296.07V101.033H1343.86V50.7078ZM1344.06 50.7078H1391.85V87.0709L1378.59 101.033H1344.06V50.7078ZM1378.39 101.239H1344.06V146.606L1344.22 146.437L1349.09 151.563H1391.85V115.441L1378.38 101.256L1378.39 101.239ZM1391.85 115.168L1378.63 101.256L1378.65 101.239H1386.83L1386.82 101.256L1391.85 106.553V115.168ZM1392.04 115.337V151.563H1439.83V101.239H1405.4L1405.41 101.256L1392.04 115.337ZM1405.14 101.239L1405.15 101.256L1392.04 115.064V106.449L1396.97 101.256L1396.96 101.239H1405.14ZM1405.2 101.033H1439.83V50.7078H1392.04V87.175L1405.2 101.033ZM1392.04 87.4481L1404.94 101.033H1396.76L1392.04 96.0632V87.4481ZM1391.85 87.3439L1378.85 101.033H1387.03L1391.85 95.9592V87.3439ZM1344.06 156.963L1344.22 157.133L1349.3 151.785L1349.28 151.77H1391.85V202.094H1344.06V156.963ZM1339.15 151.77L1339.14 151.785L1343.86 156.757V202.094H1296.07V151.77H1339.15ZM1343.86 146.812L1339.35 151.563H1296.07V101.239H1343.86V146.812ZM960.168 101.239H1007.96V151.563H960.168V101.239ZM1055.94 101.239H1008.15V151.563H1055.94V101.239ZM1056.14 101.239H1103.93V151.563H1056.14V101.239ZM1247.89 101.239H1200.1V151.563H1247.89V101.239ZM1248.08 101.239H1295.87V151.563H1248.08V101.239ZM960.168 151.77H1007.96V202.094H960.168V151.77ZM1055.94 151.77H1008.15V202.094H1042.74L1042.68 202.029L1055.94 188.059V151.77ZM1055.94 188.332L1042.94 202.029L1043 202.094H1051.18L1051.12 202.029L1055.94 196.947V188.332ZM1056.14 196.741V188.126L1056.2 188.066L1069.46 202.029L1069.39 202.094H1061.21L1061.28 202.029L1056.2 196.681L1056.14 196.741ZM1056.14 207.317L1056.2 207.377L1061.02 202.301H1069.2L1056.2 215.992L1056.14 215.933V207.317ZM1051.38 202.301L1055.94 207.111V215.726L1043.19 202.301H1051.38ZM1042.94 202.301H1008.15V252.625H1055.94V215.999L1042.94 202.301ZM1056.14 216.206V252.625H1103.93V202.301H1069.46L1056.2 216.265L1056.14 216.206ZM1069.65 202.094H1103.93V151.77H1056.14V187.852L1056.2 187.793L1069.72 202.029L1069.65 202.094ZM1151.92 151.77H1104.13V202.094H1151.92V151.77ZM1152.11 151.77H1199.9V202.094H1152.11V151.77ZM1247.89 151.77H1200.1V202.094H1247.89V151.77ZM1248.08 151.77H1295.87V202.094H1248.08V151.77ZM1439.83 151.77H1392.04V202.094H1439.83V151.77ZM960.168 202.301H1007.96V252.625H960.168V202.301ZM1151.92 202.301H1104.13V252.625H1151.92V202.301ZM1152.11 202.301H1199.9V252.625H1152.11V202.301ZM1247.89 202.301H1200.1V252.625H1247.89V202.301ZM1248.08 202.301H1295.87V252.625H1248.08V202.301ZM1343.86 202.301H1296.07V252.625H1343.86V202.301ZM1344.06 202.301H1391.85V252.625H1344.06V202.301ZM1439.83 202.301H1392.04V252.625H1439.83V202.301ZM960.168 252.832H1007.96V303.157H960.168V252.832ZM1055.94 252.832H1008.15V303.157H1055.94V252.832ZM1056.14 252.832H1103.93V303.157H1056.14V252.832ZM1151.92 252.832H1104.13V303.157H1151.92V252.832ZM1152.11 252.832H1199.9V303.157H1152.11V252.832ZM1247.89 252.832H1200.1V303.157H1247.89V252.832ZM1248.08 252.832H1295.87V303.157H1248.08V252.832ZM1343.86 252.832H1296.07V303.157H1343.86V252.832ZM1344.06 252.832H1391.85V303.157H1344.06V252.832ZM1439.83 252.832H1392.04V303.157H1439.83V252.832Z" fill="url(#paint2_radial_2514_5560)"/>
<path fill-rule="evenodd" clip-rule="evenodd" d="M47.958 303.51H0.167881V353.835H43.007L47.958 348.621V303.51ZM53.0411 353.835L48.1539 348.688V303.51H95.9441V353.835H53.0411ZM48.1539 359.111L52.9683 354.041H95.9441V404.366H48.1539V359.111ZM43.0798 354.041L47.958 359.178V404.366H0.167881V354.041H43.0798ZM0 303.333V606.667H480L480 556.136V505.605V505.457V454.926V404.543V354.012L480 303.333H0ZM96.1398 303.51H143.93V353.835H96.1398V303.51ZM191.916 303.51H144.126V353.835H191.916V303.51ZM192.112 303.51H239.902V353.835H192.112V303.51ZM287.888 303.51H240.098V353.835H287.888V303.51ZM288.084 303.51H335.874V353.835H288.084V303.51ZM383.86 303.51H336.07V353.835H383.86V303.51ZM384.056 303.51H431.846V353.835H384.056V303.51ZM479.832 303.51H432.042V353.835H479.832V303.51ZM96.1398 354.041H143.93V404.366H96.1398V354.041ZM191.916 354.041H144.126V404.366H187.109L191.916 399.304V354.041ZM196.842 404.366L192.112 399.385V354.041H239.902V404.366H196.842ZM192.112 409.794L197.054 404.589L197.038 404.572H239.902V454.897H192.112V409.794ZM186.913 404.572L186.897 404.589L191.916 409.875V454.897H144.126V404.572H186.913ZM287.888 354.041H240.098V404.366H287.888V354.041ZM288.084 354.041H335.874V404.366H288.084V354.041ZM383.86 354.041H336.07V404.366H383.86V354.041ZM384.056 354.041H431.846V390.404L418.587 404.366H384.056V354.041ZM418.392 404.572H384.056V449.939L384.216 449.77L389.085 454.897H431.846V418.774L418.375 404.589L418.392 404.572ZM431.846 418.501L418.635 404.589L418.651 404.572H426.832L426.816 404.589L431.846 409.886V418.501ZM432.042 418.67V454.897H479.832V404.572H445.397L445.414 404.589L432.042 418.67ZM445.138 404.572L445.154 404.589L432.042 418.397V409.782L436.973 404.589L436.957 404.572H445.138ZM445.202 404.366H479.832V354.041H432.042V390.508L445.202 404.366ZM432.042 390.781L444.942 404.366H436.761L432.042 399.396V390.781ZM431.846 390.677L418.847 404.366H427.028L431.846 399.293V390.677ZM384.056 460.297L384.216 460.466L389.295 455.118L389.281 455.103H431.846V505.428H384.056V460.297ZM379.152 455.103L379.138 455.118L383.86 460.091V505.428H336.07V455.103H379.152ZM383.86 450.145L379.348 454.897H336.07V404.572H383.86V450.145ZM0.167881 404.572H47.958V454.897H0.167881V404.572ZM95.9441 404.572H48.1539V454.897H95.9441V404.572ZM96.1398 404.572H143.93V454.897H96.1398V404.572ZM287.888 404.572H240.098V454.897H287.888V404.572ZM288.084 404.572H335.874V454.897H288.084V404.572ZM0.167881 455.103H47.958V505.428H0.167881V455.103ZM95.9441 455.103H48.1539V505.428H82.7394L82.6772 505.362L95.9441 491.392V455.103ZM95.9441 491.665L82.9366 505.362L82.9987 505.428H91.18L91.1179 505.362L95.9441 500.28V491.665ZM96.1398 500.074V491.459L96.1965 491.399L109.456 505.362L109.394 505.428H101.213L101.275 505.362L96.1965 500.014L96.1398 500.074ZM96.1398 510.651L96.1965 510.71L101.017 505.634H109.198L96.1965 519.325L96.1398 519.266V510.651ZM91.3759 505.634L95.9441 510.445V519.06L83.1946 505.634H91.3759ZM82.9353 505.634H48.1539V555.959H95.9441V519.333L82.9353 505.634ZM96.1398 519.539V555.959H143.93V505.634H109.458L96.1965 519.599L96.1398 519.539ZM109.654 505.428H143.93V455.103H96.1398V491.186L96.1965 491.126L109.716 505.362L109.654 505.428ZM191.916 455.103H144.126V505.428H191.916V455.103ZM192.112 455.103H239.902V505.428H192.112V455.103ZM287.888 455.103H240.098V505.428H287.888V455.103ZM288.084 455.103H335.874V505.428H288.084V455.103ZM479.832 455.103H432.042V505.428H479.832V455.103ZM0.167881 505.634H47.958V555.959H0.167881V505.634ZM191.916 505.634H144.126V555.959H191.916V505.634ZM192.112 505.634H239.902V555.959H192.112V505.634ZM287.888 505.634H240.098V555.959H287.888V505.634ZM288.084 505.634H335.874V555.959H288.084V505.634ZM383.86 505.634H336.07V555.959H383.86V505.634ZM384.056 505.634H431.846V555.959H384.056V505.634ZM479.832 505.634H432.042V555.959H479.832V505.634ZM0.167881 556.165H47.958V606.49H0.167881V556.165ZM95.9441 556.165H48.1539V606.49H95.9441V556.165ZM96.1398 556.165H143.93V606.49H96.1398V556.165ZM191.916 556.165H144.126V606.49H191.916V556.165ZM192.112 556.165H239.902V606.49H192.112V556.165ZM287.888 556.165H240.098V606.49H287.888V556.165ZM288.084 556.165H335.874V606.49H288.084V556.165ZM383.86 556.165H336.07V606.49H383.86V556.165ZM384.056 556.165H431.846V606.49H384.056V556.165ZM479.832 556.165H432.042V606.49H479.832V556.165Z" fill="url(#paint3_radial_2514_5560)"/>
<path fill-rule="evenodd" clip-rule="evenodd" d="M527.958 303.51H480.168V353.835H523.007L527.958 348.621V303.51ZM533.041 353.835L528.154 348.688V303.51H575.944V353.835H533.041ZM528.154 359.111L532.968 354.041H575.944V404.366H528.154V359.111ZM523.08 354.041L527.958 359.178V404.366H480.168V354.041H523.08ZM480 303.333L480 354.012V404.543V454.926V505.457V505.605V556.136L480 606.667H960L960 556.136V505.605V505.457V454.926V404.543V354.012L960 303.333H480ZM576.14 303.51H623.93V353.835H576.14V303.51ZM671.916 303.51H624.126V353.835H671.916V303.51ZM672.112 303.51H719.902V353.835H672.112V303.51ZM767.888 303.51H720.098V353.835H767.888V303.51ZM768.084 303.51H815.874V353.835H768.084V303.51ZM863.86 303.51H816.07V353.835H863.86V303.51ZM864.056 303.51H911.846V353.835H864.056V303.51ZM959.832 303.51H912.042V353.835H959.832V303.51ZM576.14 354.041H623.93V404.366H576.14V354.041ZM671.916 354.041H624.126V404.366H667.109L671.916 399.304V354.041ZM676.842 404.366L672.112 399.385V354.041H719.902V404.366H676.842ZM672.112 409.794L677.054 404.589L677.038 404.572H719.902V454.897H672.112V409.794ZM666.913 404.572L666.897 404.589L671.916 409.875V454.897H624.126V404.572H666.913ZM767.888 354.041H720.098V404.366H767.888V354.041ZM768.084 354.041H815.874V404.366H768.084V354.041ZM863.86 354.041H816.07V404.366H863.86V354.041ZM864.056 354.041H911.846V390.404L898.587 404.366H864.056V354.041ZM898.392 404.572H864.056V449.939L864.216 449.77L869.085 454.897H911.846V418.774L898.375 404.589L898.392 404.572ZM911.846 418.501L898.635 404.589L898.651 404.572H906.832L906.816 404.589L911.846 409.886V418.501ZM912.042 418.67V454.897H959.832V404.572H925.397L925.414 404.589L912.042 418.67ZM925.138 404.572L925.154 404.589L912.042 418.397V409.782L916.973 404.589L916.957 404.572H925.138ZM925.202 404.366H959.832V354.041H912.042V390.508L925.202 404.366ZM912.042 390.781L924.942 404.366H916.761L912.042 399.396V390.781ZM911.846 390.677L898.847 404.366H907.028L911.846 399.293V390.677ZM864.056 460.297L864.216 460.466L869.295 455.118L869.281 455.103H911.846V505.428H864.056V460.297ZM859.152 455.103L859.138 455.118L863.86 460.091V505.428H816.07V455.103H859.152ZM863.86 450.145L859.348 454.897H816.07V404.572H863.86V450.145ZM480.168 404.572H527.958V454.897H480.168V404.572ZM575.944 404.572H528.154V454.897H575.944V404.572ZM576.14 404.572H623.93V454.897H576.14V404.572ZM767.888 404.572H720.098V454.897H767.888V404.572ZM768.084 404.572H815.874V454.897H768.084V404.572ZM480.168 455.103H527.958V505.428H480.168V455.103ZM575.944 455.103H528.154V505.428H562.739L562.677 505.362L575.944 491.392V455.103ZM575.944 491.665L562.937 505.362L562.999 505.428H571.18L571.118 505.362L575.944 500.28V491.665ZM576.14 500.074V491.459L576.196 491.399L589.456 505.362L589.394 505.428H581.213L581.275 505.362L576.196 500.014L576.14 500.074ZM576.14 510.651L576.196 510.71L581.017 505.634H589.198L576.196 519.325L576.14 519.266V510.651ZM571.376 505.634L575.944 510.445V519.06L563.195 505.634H571.376ZM562.935 505.634H528.154V555.959H575.944V519.333L562.935 505.634ZM576.14 519.539V555.959H623.93V505.634H589.458L576.196 519.599L576.14 519.539ZM589.654 505.428H623.93V455.103H576.14V491.186L576.196 491.126L589.716 505.362L589.654 505.428ZM671.916 455.103H624.126V505.428H671.916V455.103ZM672.112 455.103H719.902V505.428H672.112V455.103ZM767.888 455.103H720.098V505.428H767.888V455.103ZM768.084 455.103H815.874V505.428H768.084V455.103ZM959.832 455.103H912.042V505.428H959.832V455.103ZM480.168 505.634H527.958V555.959H480.168V505.634ZM671.916 505.634H624.126V555.959H671.916V505.634ZM672.112 505.634H719.902V555.959H672.112V505.634ZM767.888 505.634H720.098V555.959H767.888V505.634ZM768.084 505.634H815.874V555.959H768.084V505.634ZM863.86 505.634H816.07V555.959H863.86V505.634ZM864.056 505.634H911.846V555.959H864.056V505.634ZM959.832 505.634H912.042V555.959H959.832V505.634ZM480.168 556.165H527.958V606.49H480.168V556.165ZM575.944 556.165H528.154V606.49H575.944V556.165ZM576.14 556.165H623.93V606.49H576.14V556.165ZM671.916 556.165H624.126V606.49H671.916V556.165ZM672.112 556.165H719.902V606.49H672.112V556.165ZM767.888 556.165H720.098V606.49H767.888V556.165ZM768.084 556.165H815.874V606.49H768.084V556.165ZM863.86 556.165H816.07V606.49H863.86V556.165ZM864.056 556.165H911.846V606.49H864.056V556.165ZM959.832 556.165H912.042V606.49H959.832V556.165Z" fill="url(#paint4_radial_2514_5560)"/>
<path fill-rule="evenodd" clip-rule="evenodd" d="M1007.96 303.51H960.168V353.835H1003.01L1007.96 348.621V303.51ZM1013.04 353.835L1008.15 348.688V303.51H1055.94V353.835H1013.04ZM1008.15 359.111L1012.97 354.041H1055.94V404.366H1008.15V359.111ZM1003.08 354.041L1007.96 359.178V404.366H960.168V354.041H1003.08ZM960 303.333L960 354.012V404.543V454.926V505.457V505.605V556.136L960 606.667H1440V303.333H960ZM1056.14 303.51H1103.93V353.835H1056.14V303.51ZM1151.92 303.51H1104.13V353.835H1151.92V303.51ZM1152.11 303.51H1199.9V353.835H1152.11V303.51ZM1247.89 303.51H1200.1V353.835H1247.89V303.51ZM1248.08 303.51H1295.87V353.835H1248.08V303.51ZM1343.86 303.51H1296.07V353.835H1343.86V303.51ZM1344.06 303.51H1391.85V353.835H1344.06V303.51ZM1439.83 303.51H1392.04V353.835H1439.83V303.51ZM1056.14 354.041H1103.93V404.366H1056.14V354.041ZM1151.92 354.041H1104.13V404.366H1147.11L1151.92 399.304V354.041ZM1156.84 404.366L1152.11 399.385V354.041H1199.9V404.366H1156.84ZM1152.11 409.794L1157.05 404.589L1157.04 404.572H1199.9V454.897H1152.11V409.794ZM1146.91 404.572L1146.9 404.589L1151.92 409.875V454.897H1104.13V404.572H1146.91ZM1247.89 354.041H1200.1V404.366H1247.89V354.041ZM1248.08 354.041H1295.87V404.366H1248.08V354.041ZM1343.86 354.041H1296.07V404.366H1343.86V354.041ZM1344.06 354.041H1391.85V390.404L1378.59 404.366H1344.06V354.041ZM1378.39 404.572H1344.06V449.939L1344.22 449.77L1349.09 454.897H1391.85V418.774L1378.38 404.589L1378.39 404.572ZM1391.85 418.501L1378.63 404.589L1378.65 404.572H1386.83L1386.82 404.589L1391.85 409.886V418.501ZM1392.04 418.67V454.897H1439.83V404.572H1405.4L1405.41 404.589L1392.04 418.67ZM1405.14 404.572L1405.15 404.589L1392.04 418.397V409.782L1396.97 404.589L1396.96 404.572H1405.14ZM1405.2 404.366H1439.83V354.041H1392.04V390.508L1405.2 404.366ZM1392.04 390.781L1404.94 404.366H1396.76L1392.04 399.396V390.781ZM1391.85 390.677L1378.85 404.366H1387.03L1391.85 399.293V390.677ZM1344.06 460.297L1344.22 460.466L1349.3 455.118L1349.28 455.103H1391.85V505.428H1344.06V460.297ZM1339.15 455.103L1339.14 455.118L1343.86 460.091V505.428H1296.07V455.103H1339.15ZM1343.86 450.145L1339.35 454.897H1296.07V404.572H1343.86V450.145ZM960.168 404.572H1007.96V454.897H960.168V404.572ZM1055.94 404.572H1008.15V454.897H1055.94V404.572ZM1056.14 404.572H1103.93V454.897H1056.14V404.572ZM1247.89 404.572H1200.1V454.897H1247.89V404.572ZM1248.08 404.572H1295.87V454.897H1248.08V404.572ZM960.168 455.103H1007.96V505.428H960.168V455.103ZM1055.94 455.103H1008.15V505.428H1042.74L1042.68 505.362L1055.94 491.392V455.103ZM1055.94 491.665L1042.94 505.362L1043 505.428H1051.18L1051.12 505.362L1055.94 500.28V491.665ZM1056.14 500.074V491.459L1056.2 491.399L1069.46 505.362L1069.39 505.428H1061.21L1061.28 505.362L1056.2 500.014L1056.14 500.074ZM1056.14 510.651L1056.2 510.71L1061.02 505.634H1069.2L1056.2 519.325L1056.14 519.266V510.651ZM1051.38 505.634L1055.94 510.445V519.06L1043.19 505.634H1051.38ZM1042.94 505.634H1008.15V555.959H1055.94V519.333L1042.94 505.634ZM1056.14 519.539V555.959H1103.93V505.634H1069.46L1056.2 519.599L1056.14 519.539ZM1069.65 505.428H1103.93V455.103H1056.14V491.186L1056.2 491.126L1069.72 505.362L1069.65 505.428ZM1151.92 455.103H1104.13V505.428H1151.92V455.103ZM1152.11 455.103H1199.9V505.428H1152.11V455.103ZM1247.89 455.103H1200.1V505.428H1247.89V455.103ZM1248.08 455.103H1295.87V505.428H1248.08V455.103ZM1439.83 455.103H1392.04V505.428H1439.83V455.103ZM960.168 505.634H1007.96V555.959H960.168V505.634ZM1151.92 505.634H1104.13V555.959H1151.92V505.634ZM1152.11 505.634H1199.9V555.959H1152.11V505.634ZM1247.89 505.634H1200.1V555.959H1247.89V505.634ZM1248.08 505.634H1295.87V555.959H1248.08V505.634ZM1343.86 505.634H1296.07V555.959H1343.86V505.634ZM1344.06 505.634H1391.85V555.959H1344.06V505.634ZM1439.83 505.634H1392.04V555.959H1439.83V505.634ZM960.168 556.165H1007.96V606.49H960.168V556.165ZM1055.94 556.165H1008.15V606.49H1055.94V556.165ZM1056.14 556.165H1103.93V606.49H1056.14V556.165ZM1151.92 556.165H1104.13V606.49H1151.92V556.165ZM1152.11 556.165H1199.9V606.49H1152.11V556.165ZM1247.89 556.165H1200.1V606.49H1247.89V556.165ZM1248.08 556.165H1295.87V606.49H1248.08V556.165ZM1343.86 556.165H1296.07V606.49H1343.86V556.165ZM1344.06 556.165H1391.85V606.49H1344.06V556.165ZM1439.83 556.165H1392.04V606.49H1439.83V556.165Z" fill="url(#paint5_radial_2514_5560)"/>
<path fill-rule="evenodd" clip-rule="evenodd" d="M47.958 606.843H0.167881V657.168H43.007L47.958 651.955V606.843ZM53.0411 657.168L48.1539 652.022V606.843H95.9441V657.168H53.0411ZM48.1539 662.444L52.9683 657.374H95.9441V707.699H48.1539V662.444ZM43.0798 657.374L47.958 662.511V707.699H0.167881V657.374H43.0798ZM0 606.667V910H480L480 859.469V808.938V808.791V758.26V707.876V657.345L480 606.667H0ZM96.1398 606.843H143.93V657.168H96.1398V606.843ZM191.916 606.843H144.126V657.168H191.916V606.843ZM192.112 606.843H239.902V657.168H192.112V606.843ZM287.888 606.843H240.098V657.168H287.888V606.843ZM288.084 606.843H335.874V657.168H288.084V606.843ZM383.86 606.843H336.07V657.168H383.86V606.843ZM384.056 606.843H431.846V657.168H384.056V606.843ZM479.832 606.843H432.042V657.168H479.832V606.843ZM96.1398 657.374H143.93V707.699H96.1398V657.374ZM191.916 657.374H144.126V707.699H187.109L191.916 702.637V657.374ZM196.842 707.699L192.112 702.718V657.374H239.902V707.699H196.842ZM192.112 713.127L197.054 707.923L197.038 707.905H239.902V758.23H192.112V713.127ZM186.913 707.905L186.897 707.923L191.916 713.208V758.23H144.126V707.905H186.913ZM287.888 657.374H240.098V707.699H287.888V657.374ZM288.084 657.374H335.874V707.699H288.084V657.374ZM383.86 657.374H336.07V707.699H383.86V657.374ZM384.056 657.374H431.846V693.738L418.587 707.699H384.056V657.374ZM418.392 707.905H384.056V753.272L384.216 753.103L389.085 758.23H431.846V722.108L418.375 707.923L418.392 707.905ZM431.846 721.835L418.635 707.923L418.651 707.905H426.832L426.816 707.923L431.846 713.22V721.835ZM432.042 722.004V758.23H479.832V707.905H445.397L445.414 707.923L432.042 722.004ZM445.138 707.905L445.154 707.923L432.042 721.731V713.116L436.973 707.923L436.957 707.905H445.138ZM445.202 707.699H479.832V657.374H432.042V693.842L445.202 707.699ZM432.042 694.115L444.942 707.699H436.761L432.042 702.73V694.115ZM431.846 694.011L418.847 707.699H427.028L431.846 702.626V694.011ZM384.056 763.63L384.216 763.799L389.295 758.451L389.281 758.436H431.846V808.761H384.056V763.63ZM379.152 758.436L379.138 758.451L383.86 763.424V808.761H336.07V758.436H379.152ZM383.86 753.479L379.348 758.23H336.07V707.905H383.86V753.479ZM0.167881 707.905H47.958V758.23H0.167881V707.905ZM95.9441 707.905H48.1539V758.23H95.9441V707.905ZM96.1398 707.905H143.93V758.23H96.1398V707.905ZM287.888 707.905H240.098V758.23H287.888V707.905ZM288.084 707.905H335.874V758.23H288.084V707.905ZM0.167881 758.436H47.958V808.761H0.167881V758.436ZM95.9441 758.436H48.1539V808.761H82.7394L82.6772 808.696L95.9441 794.725V758.436ZM95.9441 794.998L82.9366 808.696L82.9987 808.761H91.18L91.1179 808.696L95.9441 803.614V794.998ZM96.1398 803.407V794.792L96.1965 794.733L109.456 808.696L109.394 808.761H101.213L101.275 808.696L96.1965 803.348L96.1398 803.407ZM96.1398 813.984L96.1965 814.044L101.017 808.967H109.198L96.1965 822.659L96.1398 822.599V813.984ZM91.3759 808.967L95.9441 813.778V822.393L83.1946 808.967H91.3759ZM82.9353 808.967H48.1539V859.292H95.9441V822.666L82.9353 808.967ZM96.1398 822.872V859.292H143.93V808.967H109.458L96.1965 822.932L96.1398 822.872ZM109.654 808.761H143.93V758.436H96.1398V794.519L96.1965 794.459L109.716 808.696L109.654 808.761ZM191.916 758.436H144.126V808.761H191.916V758.436ZM192.112 758.436H239.902V808.761H192.112V758.436ZM287.888 758.436H240.098V808.761H287.888V758.436ZM288.084 758.436H335.874V808.761H288.084V758.436ZM479.832 758.436H432.042V808.761H479.832V758.436ZM0.167881 808.967H47.958V859.292H0.167881V808.967ZM191.916 808.967H144.126V859.292H191.916V808.967ZM192.112 808.967H239.902V859.292H192.112V808.967ZM287.888 808.967H240.098V859.292H287.888V808.967ZM288.084 808.967H335.874V859.292H288.084V808.967ZM383.86 808.967H336.07V859.292H383.86V808.967ZM384.056 808.967H431.846V859.292H384.056V808.967ZM479.832 808.967H432.042V859.292H479.832V808.967ZM0.167881 859.498H47.958V909.823H0.167881V859.498ZM95.9441 859.498H48.1539V909.823H95.9441V859.498ZM96.1398 859.498H143.93V909.823H96.1398V859.498ZM191.916 859.498H144.126V909.823H191.916V859.498ZM192.112 859.498H239.902V909.823H192.112V859.498ZM287.888 859.498H240.098V909.823H287.888V859.498ZM288.084 859.498H335.874V909.823H288.084V859.498ZM383.86 859.498H336.07V909.823H383.86V859.498ZM384.056 859.498H431.846V909.823H384.056V859.498ZM479.832 859.498H432.042V909.823H479.832V859.498Z" fill="url(#paint6_radial_2514_5560)"/>
<path fill-rule="evenodd" clip-rule="evenodd" d="M527.958 606.843H480.168V657.168H523.007L527.958 651.955V606.843ZM533.041 657.168L528.154 652.022V606.843H575.944V657.168H533.041ZM528.154 662.444L532.968 657.374H575.944V707.699H528.154V662.444ZM523.08 657.374L527.958 662.511V707.699H480.168V657.374H523.08ZM480 606.667L480 657.345V707.876V758.26V808.791V808.938V859.469L480 910H960L960 859.469V808.938V808.791V758.26V707.876V657.345L960 606.667H480ZM576.14 606.843H623.93V657.168H576.14V606.843ZM671.916 606.843H624.126V657.168H671.916V606.843ZM672.112 606.843H719.902V657.168H672.112V606.843ZM767.888 606.843H720.098V657.168H767.888V606.843ZM768.084 606.843H815.874V657.168H768.084V606.843ZM863.86 606.843H816.07V657.168H863.86V606.843ZM864.056 606.843H911.846V657.168H864.056V606.843ZM959.832 606.843H912.042V657.168H959.832V606.843ZM576.14 657.374H623.93V707.699H576.14V657.374ZM671.916 657.374H624.126V707.699H667.109L671.916 702.637V657.374ZM676.842 707.699L672.112 702.718V657.374H719.902V707.699H676.842ZM672.112 713.127L677.054 707.923L677.038 707.905H719.902V758.23H672.112V713.127ZM666.913 707.905L666.897 707.923L671.916 713.208V758.23H624.126V707.905H666.913ZM767.888 657.374H720.098V707.699H767.888V657.374ZM768.084 657.374H815.874V707.699H768.084V657.374ZM863.86 657.374H816.07V707.699H863.86V657.374ZM864.056 657.374H911.846V693.738L898.587 707.699H864.056V657.374ZM898.392 707.905H864.056V753.272L864.216 753.103L869.085 758.23H911.846V722.108L898.375 707.923L898.392 707.905ZM911.846 721.835L898.635 707.923L898.651 707.905H906.832L906.816 707.923L911.846 713.22V721.835ZM912.042 722.004V758.23H959.832V707.905H925.397L925.414 707.923L912.042 722.004ZM925.138 707.905L925.154 707.923L912.042 721.731V713.116L916.973 707.923L916.957 707.905H925.138ZM925.202 707.699H959.832V657.374H912.042V693.842L925.202 707.699ZM912.042 694.115L924.942 707.699H916.761L912.042 702.73V694.115ZM911.846 694.011L898.847 707.699H907.028L911.846 702.626V694.011ZM864.056 763.63L864.216 763.799L869.295 758.451L869.281 758.436H911.846V808.761H864.056V763.63ZM859.152 758.436L859.138 758.451L863.86 763.424V808.761H816.07V758.436H859.152ZM863.86 753.479L859.348 758.23H816.07V707.905H863.86V753.479ZM480.168 707.905H527.958V758.23H480.168V707.905ZM575.944 707.905H528.154V758.23H575.944V707.905ZM576.14 707.905H623.93V758.23H576.14V707.905ZM767.888 707.905H720.098V758.23H767.888V707.905ZM768.084 707.905H815.874V758.23H768.084V707.905ZM480.168 758.436H527.958V808.761H480.168V758.436ZM575.944 758.436H528.154V808.761H562.739L562.677 808.696L575.944 794.725V758.436ZM575.944 794.998L562.937 808.696L562.999 808.761H571.18L571.118 808.696L575.944 803.614V794.998ZM576.14 803.407V794.792L576.196 794.733L589.456 808.696L589.394 808.761H581.213L581.275 808.696L576.196 803.348L576.14 803.407ZM576.14 813.984L576.196 814.044L581.017 808.967H589.198L576.196 822.659L576.14 822.599V813.984ZM571.376 808.967L575.944 813.778V822.393L563.195 808.967H571.376ZM562.935 808.967H528.154V859.292H575.944V822.666L562.935 808.967ZM576.14 822.872V859.292H623.93V808.967H589.458L576.196 822.932L576.14 822.872ZM589.654 808.761H623.93V758.436H576.14V794.519L576.196 794.459L589.716 808.696L589.654 808.761ZM671.916 758.436H624.126V808.761H671.916V758.436ZM672.112 758.436H719.902V808.761H672.112V758.436ZM767.888 758.436H720.098V808.761H767.888V758.436ZM768.084 758.436H815.874V808.761H768.084V758.436ZM959.832 758.436H912.042V808.761H959.832V758.436ZM480.168 808.967H527.958V859.292H480.168V808.967ZM671.916 808.967H624.126V859.292H671.916V808.967ZM672.112 808.967H719.902V859.292H672.112V808.967ZM767.888 808.967H720.098V859.292H767.888V808.967ZM768.084 808.967H815.874V859.292H768.084V808.967ZM863.86 808.967H816.07V859.292H863.86V808.967ZM864.056 808.967H911.846V859.292H864.056V808.967ZM959.832 808.967H912.042V859.292H959.832V808.967ZM480.168 859.498H527.958V909.823H480.168V859.498ZM575.944 859.498H528.154V909.823H575.944V859.498ZM576.14 859.498H623.93V909.823H576.14V859.498ZM671.916 859.498H624.126V909.823H671.916V859.498ZM672.112 859.498H719.902V909.823H672.112V859.498ZM767.888 859.498H720.098V909.823H767.888V859.498ZM768.084 859.498H815.874V909.823H768.084V859.498ZM863.86 859.498H816.07V909.823H863.86V859.498ZM864.056 859.498H911.846V909.823H864.056V859.498ZM959.832 859.498H912.042V909.823H959.832V859.498Z" fill="url(#paint7_radial_2514_5560)"/>
<path fill-rule="evenodd" clip-rule="evenodd" d="M1007.96 606.843H960.168V657.168H1003.01L1007.96 651.955V606.843ZM1013.04 657.168L1008.15 652.022V606.843H1055.94V657.168H1013.04ZM1008.15 662.444L1012.97 657.374H1055.94V707.699H1008.15V662.444ZM1003.08 657.374L1007.96 662.511V707.699H960.168V657.374H1003.08ZM960 606.667L960 657.345V707.876V758.26V808.791V808.938V859.469L960 910H1440V606.667H960ZM1056.14 606.843H1103.93V657.168H1056.14V606.843ZM1151.92 606.843H1104.13V657.168H1151.92V606.843ZM1152.11 606.843H1199.9V657.168H1152.11V606.843ZM1247.89 606.843H1200.1V657.168H1247.89V606.843ZM1248.08 606.843H1295.87V657.168H1248.08V606.843ZM1343.86 606.843H1296.07V657.168H1343.86V606.843ZM1344.06 606.843H1391.85V657.168H1344.06V606.843ZM1439.83 606.843H1392.04V657.168H1439.83V606.843ZM1056.14 657.374H1103.93V707.699H1056.14V657.374ZM1151.92 657.374H1104.13V707.699H1147.11L1151.92 702.637V657.374ZM1156.84 707.699L1152.11 702.718V657.374H1199.9V707.699H1156.84ZM1152.11 713.127L1157.05 707.923L1157.04 707.905H1199.9V758.23H1152.11V713.127ZM1146.91 707.905L1146.9 707.923L1151.92 713.208V758.23H1104.13V707.905H1146.91ZM1247.89 657.374H1200.1V707.699H1247.89V657.374ZM1248.08 657.374H1295.87V707.699H1248.08V657.374ZM1343.86 657.374H1296.07V707.699H1343.86V657.374ZM1344.06 657.374H1391.85V693.738L1378.59 707.699H1344.06V657.374ZM1378.39 707.905H1344.06V753.272L1344.22 753.103L1349.09 758.23H1391.85V722.108L1378.38 707.923L1378.39 707.905ZM1391.85 721.835L1378.63 707.923L1378.65 707.905H1386.83L1386.82 707.923L1391.85 713.22V721.835ZM1392.04 722.004V758.23H1439.83V707.905H1405.4L1405.41 707.923L1392.04 722.004ZM1405.14 707.905L1405.15 707.923L1392.04 721.731V713.116L1396.97 707.923L1396.96 707.905H1405.14ZM1405.2 707.699H1439.83V657.374H1392.04V693.842L1405.2 707.699ZM1392.04 694.115L1404.94 707.699H1396.76L1392.04 702.73V694.115ZM1391.85 694.011L1378.85 707.699H1387.03L1391.85 702.626V694.011ZM1344.06 763.63L1344.22 763.799L1349.3 758.451L1349.28 758.436H1391.85V808.761H1344.06V763.63ZM1339.15 758.436L1339.14 758.451L1343.86 763.424V808.761H1296.07V758.436H1339.15ZM1343.86 753.479L1339.35 758.23H1296.07V707.905H1343.86V753.479ZM960.168 707.905H1007.96V758.23H960.168V707.905ZM1055.94 707.905H1008.15V758.23H1055.94V707.905ZM1056.14 707.905H1103.93V758.23H1056.14V707.905ZM1247.89 707.905H1200.1V758.23H1247.89V707.905ZM1248.08 707.905H1295.87V758.23H1248.08V707.905ZM960.168 758.436H1007.96V808.761H960.168V758.436ZM1055.94 758.436H1008.15V808.761H1042.74L1042.68 808.696L1055.94 794.725V758.436ZM1055.94 794.998L1042.94 808.696L1043 808.761H1051.18L1051.12 808.696L1055.94 803.614V794.998ZM1056.14 803.407V794.792L1056.2 794.733L1069.46 808.696L1069.39 808.761H1061.21L1061.28 808.696L1056.2 803.348L1056.14 803.407ZM1056.14 813.984L1056.2 814.044L1061.02 808.967H1069.2L1056.2 822.659L1056.14 822.599V813.984ZM1051.38 808.967L1055.94 813.778V822.393L1043.19 808.967H1051.38ZM1042.94 808.967H1008.15V859.292H1055.94V822.666L1042.94 808.967ZM1056.14 822.872V859.292H1103.93V808.967H1069.46L1056.2 822.932L1056.14 822.872ZM1069.65 808.761H1103.93V758.436H1056.14V794.519L1056.2 794.459L1069.72 808.696L1069.65 808.761ZM1151.92 758.436H1104.13V808.761H1151.92V758.436ZM1152.11 758.436H1199.9V808.761H1152.11V758.436ZM1247.89 758.436H1200.1V808.761H1247.89V758.436ZM1248.08 758.436H1295.87V808.761H1248.08V758.436ZM1439.83 758.436H1392.04V808.761H1439.83V758.436ZM960.168 808.967H1007.96V859.292H960.168V808.967ZM1151.92 808.967H1104.13V859.292H1151.92V808.967ZM1152.11 808.967H1199.9V859.292H1152.11V808.967ZM1247.89 808.967H1200.1V859.292H1247.89V808.967ZM1248.08 808.967H1295.87V859.292H1248.08V808.967ZM1343.86 808.967H1296.07V859.292H1343.86V808.967ZM1344.06 808.967H1391.85V859.292H1344.06V808.967ZM1439.83 808.967H1392.04V859.292H1439.83V808.967ZM960.168 859.498H1007.96V909.823H960.168V859.498ZM1055.94 859.498H1008.15V909.823H1055.94V859.498ZM1056.14 859.498H1103.93V909.823H1056.14V859.498ZM1151.92 859.498H1104.13V909.823H1151.92V859.498ZM1152.11 859.498H1199.9V909.823H1152.11V859.498ZM1247.89 859.498H1200.1V909.823H1247.89V859.498ZM1248.08 859.498H1295.87V909.823H1248.08V859.498ZM1343.86 859.498H1296.07V909.823H1343.86V859.498ZM1344.06 859.498H1391.85V909.823H1344.06V859.498ZM1439.83 859.498H1392.04V909.823H1439.83V859.498Z" fill="url(#paint8_radial_2514_5560)"/>
<defs>
<radialGradient id="paint0_radial_2514_5560" cx="0" cy="0" r="1" gradientUnits="userSpaceOnUse" gradientTransform="translate(720 206) rotate(88.7102) scale(644.163 1019.34)">
<stop stop-color="#C7AD9E"/>
<stop offset="1" stop-color="#F1D5C6" stop-opacity="0.42"/>
</radialGradient>
<radialGradient id="paint1_radial_2514_5560" cx="0" cy="0" r="1" gradientUnits="userSpaceOnUse" gradientTransform="translate(720 206) rotate(88.7102) scale(644.163 1019.34)">
<stop stop-color="#C7AD9E"/>
<stop offset="1" stop-color="#F1D5C6" stop-opacity="0.42"/>
</radialGradient>
<radialGradient id="paint2_radial_2514_5560" cx="0" cy="0" r="1" gradientUnits="userSpaceOnUse" gradientTransform="translate(720 206) rotate(88.7102) scale(644.163 1019.34)">
<stop stop-color="#C7AD9E"/>
<stop offset="1" stop-color="#F1D5C6" stop-opacity="0.42"/>
</radialGradient>
<radialGradient id="paint3_radial_2514_5560" cx="0" cy="0" r="1" gradientUnits="userSpaceOnUse" gradientTransform="translate(720 206) rotate(88.7102) scale(644.163 1019.34)">
<stop stop-color="#C7AD9E"/>
<stop offset="1" stop-color="#F1D5C6" stop-opacity="0.42"/>
</radialGradient>
<radialGradient id="paint4_radial_2514_5560" cx="0" cy="0" r="1" gradientUnits="userSpaceOnUse" gradientTransform="translate(720 206) rotate(88.7102) scale(644.163 1019.34)">
<stop stop-color="#C7AD9E"/>
<stop offset="1" stop-color="#F1D5C6" stop-opacity="0.42"/>
</radialGradient>
<radialGradient id="paint5_radial_2514_5560" cx="0" cy="0" r="1" gradientUnits="userSpaceOnUse" gradientTransform="translate(720 206) rotate(88.7102) scale(644.163 1019.34)">
<stop stop-color="#C7AD9E"/>
<stop offset="1" stop-color="#F1D5C6" stop-opacity="0.42"/>
</radialGradient>
<radialGradient id="paint6_radial_2514_5560" cx="0" cy="0" r="1" gradientUnits="userSpaceOnUse" gradientTransform="translate(720 206) rotate(88.7102) scale(644.163 1019.34)">
<stop stop-color="#C7AD9E"/>
<stop offset="1" stop-color="#F1D5C6" stop-opacity="0.42"/>
</radialGradient>
<radialGradient id="paint7_radial_2514_5560" cx="0" cy="0" r="1" gradientUnits="userSpaceOnUse" gradientTransform="translate(720 206) rotate(88.7102) scale(644.163 1019.34)">
<stop stop-color="#C7AD9E"/>
<stop offset="1" stop-color="#F1D5C6" stop-opacity="0.42"/>
</radialGradient>
<radialGradient id="paint8_radial_2514_5560" cx="0" cy="0" r="1" gradientUnits="userSpaceOnUse" gradientTransform="translate(720 206) rotate(88.7102) scale(644.163 1019.34)">
<stop stop-color="#C7AD9E"/>
<stop offset="1" stop-color="#F1D5C6" stop-opacity="0.42"/>
</radialGradient>
</defs>
</svg>
